<svg version="1.1" id="Layer_1" xmlns="http://www.w3.org/2000/svg" xmlns:xlink="http://www.w3.org/1999/xlink" x="0px" y="0px" width="100%" viewBox="0 0 200 200" enable-background="new 0 0 200 200" xml:space="preserve">

<path fill="#D26E1C" opacity="1.000000" stroke="none" d="
M150.157867,76.532745 
	C151.320251,79.189178 152.482620,81.845619 153.810806,84.880959 
	C151.666534,85.490051 150.330093,85.869675 148.315552,86.441917 
	C155.721527,96.753906 153.915894,108.228020 153.946457,120.017136 
	C152.382233,119.365952 151.167603,118.860306 149.139694,118.016090 
	C149.975067,130.479141 146.337234,141.317612 138.765244,151.558731 
	C136.923218,149.908615 135.497162,148.631134 133.542206,146.879852 
	C129.946777,151.960663 126.378204,157.003510 122.587456,162.360321 
	C120.936577,160.248825 119.629929,158.577606 117.928596,156.401581 
	C113.631454,159.358337 109.288330,162.057785 105.290436,165.196930 
	C102.524590,167.368637 100.493744,167.801895 97.531265,165.353546 
	C93.598969,162.103622 89.152275,159.476135 84.770195,156.474045 
	C83.179115,158.465881 81.852196,160.127014 80.063538,162.366196 
	C76.304489,157.086838 72.721909,152.055313 69.048889,146.896774 
	C67.250175,148.478821 65.811150,149.744522 63.954655,151.377396 
	C56.115284,141.583496 53.017136,130.706253 53.102734,118.293602 
	C51.580425,118.925491 50.452023,119.393875 49.111561,119.950279 
	C48.172943,108.410835 47.214279,96.987984 54.274940,86.389771 
	C52.449341,85.908302 51.081203,85.547478 48.667957,84.911026 
	C50.100620,81.977722 51.410267,79.296280 53.268990,76.330231 
	C61.976234,76.498604 70.134415,76.951599 78.176521,77.718285 
	C75.164108,82.566803 72.267761,87.101624 69.207092,91.893723 
	C68.347977,91.168236 67.433609,90.396088 65.637405,88.879272 
	C64.667801,94.139122 63.840748,98.625656 62.753105,103.361595 
	C62.516850,105.731865 62.541187,107.852737 62.653767,110.376663 
	C64.659935,122.575310 70.899437,128.720306 82.454689,130.612320 
	C85.997749,131.192429 89.378242,132.836426 92.924385,133.309372 
	C97.726868,133.949905 102.695580,134.588333 107.449043,134.021179 
	C112.784645,133.384598 117.950310,131.366165 123.207237,130.016403 
	C129.268661,128.460083 134.314056,125.746864 136.296066,118.985535 
	C136.754547,118.621986 136.957199,118.366348 137.054108,118.028450 
	C137.020874,118.003700 137.046738,118.082420 137.321945,118.046265 
	C137.703079,117.673340 137.809006,117.336571 138.102112,116.705887 
	C138.542603,115.292625 138.795914,114.173264 139.282104,112.762924 
	C139.635452,110.977310 139.755936,109.482674 139.941711,107.623024 
	C139.413712,106.281998 138.820389,105.305984 138.225525,104.262070 
	C138.223969,104.194176 138.134491,104.091980 138.097839,104.035217 
	C138.061188,103.978462 138.152466,104.080574 138.502441,104.107651 
	C138.876617,102.439957 138.900833,100.745178 138.928925,98.700958 
	C138.856476,97.892944 138.780167,97.434380 138.729370,96.618454 
	C138.255859,94.733116 137.904755,93.135605 137.226105,91.692078 
	C135.934341,88.944389 134.938309,90.399864 133.685608,92.010948 
	C132.491486,90.662621 131.723740,89.310371 130.814957,88.060677 
	C128.207672,84.475380 125.543289,80.931610 123.356247,77.228302 
	C132.593384,76.900978 141.375626,76.716866 150.157867,76.532745 
z" data-index="1"></path>
<path fill="#145298" opacity="1.000000" stroke="none" d="
M150.555420,76.329041 
	C141.375626,76.716866 132.593384,76.900978 122.911629,77.103592 
	C107.438942,77.216255 92.865761,77.310417 78.292587,77.404587 
	C70.134415,76.951599 61.976234,76.498604 53.401939,76.012192 
	C48.911728,73.388802 48.593159,69.698769 52.106441,67.119751 
	C59.656136,61.577702 59.567135,53.347305 60.981174,45.536568 
	C62.075470,39.491989 63.095833,33.406891 69.330811,29.727491 
	C69.772026,29.746140 70.038025,30.038160 70.019539,30.402508 
	C69.218941,32.161659 68.332603,33.509274 67.675415,34.960648 
	C66.083778,38.475735 64.311150,41.948471 63.157063,45.610233 
	C62.132763,48.860222 61.553795,52.324398 61.350105,55.728249 
	C61.247223,57.447449 62.410542,59.242416 63.367142,61.041695 
	C75.674141,67.128204 87.834068,64.619438 100.023430,62.270958 
	C100.238220,62.740532 100.426224,62.946362 100.614227,63.152187 
	C100.743515,62.437080 100.872803,61.721973 101.400818,61.005630 
	C102.862114,61.007694 103.924675,61.010994 105.079330,61.408001 
	C106.502785,62.202969 107.846497,62.983273 109.163368,62.940342 
	C115.093445,62.746994 121.041130,62.550747 126.933342,61.906319 
	C131.863419,61.367119 136.725449,60.205574 142.040710,59.242992 
	C141.834396,57.366470 141.819595,55.562527 141.405930,53.855232 
	C140.762726,51.200626 139.035873,48.557987 139.204819,46.005356 
	C139.666016,39.037502 138.113373,33.549656 131.272293,30.428427 
	C130.607132,30.124949 130.417328,28.779594 130.006851,27.917866 
	C137.838898,29.462502 140.220825,35.566730 141.809402,42.217567 
	C142.460495,44.943459 142.750565,47.760162 143.127502,50.546024 
	C143.990707,56.925640 145.008133,62.850174 150.931213,67.277122 
	C155.553833,70.732101 154.986893,73.244362 150.555420,76.329041 
z" data-index="2"></path>
<path fill="#024FA9" opacity="1.000000" stroke="none" d="
M129.923737,27.837440 
	C130.417328,28.779594 130.607132,30.124949 131.272293,30.428427 
	C138.113373,33.549656 139.666016,39.037502 139.204819,46.005356 
	C139.035873,48.557987 140.762726,51.200626 141.405930,53.855232 
	C141.819595,55.562527 141.834396,57.366470 142.040710,59.242992 
	C136.725449,60.205574 131.863419,61.367119 126.933342,61.906319 
	C121.041130,62.550747 115.093445,62.746994 109.163368,62.940342 
	C107.846497,62.983273 106.502785,62.202969 105.083786,61.040619 
	C104.665947,59.186317 104.335754,58.093109 104.004379,56.543556 
	C104.002289,52.724720 104.001381,49.362225 104.295059,45.708965 
	C104.722954,41.275269 104.856255,37.132343 104.991737,32.616451 
	C104.994431,31.497549 104.994934,30.751610 105.190636,29.729248 
	C105.923279,28.302355 106.460724,27.151888 107.439323,26.000385 
	C115.236359,25.300621 122.059616,30.949013 129.619141,27.823589 
	C129.619141,27.823589 129.840637,27.757015 129.923737,27.837440 
z" data-index="3"></path>
<path fill="#145298" opacity="1.000000" stroke="none" d="
M129.324631,27.536255 
	C122.059616,30.949013 115.236359,25.300621 107.023331,25.998764 
	C104.779266,25.996218 103.392357,25.994257 101.896378,25.773228 
	C101.588036,25.278763 101.325134,25.093744 100.630768,25.070919 
	C99.178673,27.090338 98.094414,29.037933 96.873138,30.669239 
	C96.577614,28.990017 96.419106,27.627085 96.253647,26.204380 
	C92.989105,25.985464 89.812843,25.028259 88.444016,29.435492 
	C88.176369,30.297249 85.052307,31.342180 84.311058,30.812298 
	C79.602951,27.446730 74.779633,30.067055 70.038025,30.038160 
	C70.038025,30.038160 69.772026,29.746140 69.647247,29.592358 
	C75.266579,27.961679 80.975945,26.325800 86.766296,25.060539 
	C91.039291,24.126841 95.405235,23.283009 99.753769,23.142639 
	C102.912537,23.040672 106.095978,24.258871 109.294106,24.703794 
	C115.863655,25.617748 122.450432,26.407845 129.324631,27.536255 
z" data-index="4"></path>
<path fill="#F7CD21" opacity="1.000000" stroke="none" d="
M78.176521,77.718277 
	C92.865761,77.310417 107.438942,77.216255 122.456734,77.246803 
	C125.543289,80.931610 128.207672,84.475380 130.814957,88.060677 
	C131.723740,89.310371 132.491486,90.662621 133.877640,92.276924 
	C135.855698,94.049149 137.279785,95.512474 138.703857,96.975807 
	C138.780167,97.434380 138.856476,97.892944 138.662598,98.956062 
	C138.312439,101.067261 138.232452,102.573921 138.152466,104.080574 
	C138.152466,104.080574 138.061188,103.978462 137.826080,104.149117 
	C137.387695,104.844223 137.184448,105.368675 136.839127,106.185410 
	C135.703644,107.589249 134.710236,108.700806 133.481415,109.929886 
	C132.834412,110.374405 132.422791,110.701401 131.692444,111.037430 
	C130.567581,111.688721 129.761459,112.330971 128.636078,113.004913 
	C127.912979,113.172417 127.509163,113.308228 126.747849,113.358124 
	C124.602104,113.884941 122.813850,114.497650 120.580582,115.077454 
	C117.757553,115.087692 115.379562,115.130836 112.679581,115.000229 
	C110.955002,114.448540 109.552422,114.070602 108.127151,113.297211 
	C107.204987,112.116707 106.378426,110.779678 105.392433,110.649406 
	C102.352936,110.247826 99.252739,110.244659 96.175659,110.235062 
	C95.478462,110.232887 94.779396,110.830147 93.787819,111.315544 
	C92.759247,113.665733 92.039505,114.969322 88.945259,114.357979 
	C85.787292,113.734024 82.327637,114.636993 78.673691,114.874603 
	C77.934517,114.749519 77.521706,114.621307 76.996422,114.201485 
	C76.135071,113.699715 75.386200,113.489555 74.461166,113.268242 
	C74.285004,113.257095 73.964684,113.108719 73.837006,112.789017 
	C71.377464,111.045776 69.045593,109.622253 66.479050,108.051331 
	C65.863213,107.503578 65.482040,107.103233 65.092422,106.382996 
	C64.393883,105.079468 63.703789,104.095833 63.013695,103.112190 
	C63.840748,98.625656 64.667801,94.139122 65.637405,88.879272 
	C67.433609,90.396088 68.347977,91.168236 69.207092,91.893723 
	C72.267761,87.101624 75.164108,82.566803 78.176521,77.718277 
M113.226166,103.952087 
	C116.995613,107.776688 120.879471,107.221573 121.718269,102.173744 
	C122.294296,98.707207 121.534836,94.647781 120.185310,91.337242 
	C118.852798,88.068436 116.158775,87.904022 113.945480,91.328087 
	C111.467224,95.162071 111.318138,99.093063 113.226166,103.952087 
M90.057259,102.304916 
	C90.178177,101.824509 90.327141,101.349197 90.415611,100.862885 
	C91.165573,96.740463 90.828972,92.793182 87.103645,90.262573 
	C86.160973,89.622223 83.619034,90.017212 82.712311,90.881241 
	C79.532967,93.910896 79.123970,97.974411 80.655235,101.850479 
	C81.405556,103.749763 83.280479,105.939301 85.075142,106.430222 
	C86.248802,106.751266 88.191528,104.260849 90.057259,102.304916 
z" data-index="5"></path>
<path fill="#FCFAF3" opacity="1.000000" stroke="none" d="
M113.001564,115.173988 
	C115.379562,115.130836 117.757553,115.087692 120.815437,115.320824 
	C123.365334,114.879425 125.235344,114.161736 127.105347,113.444046 
	C127.509163,113.308228 127.912979,113.172417 128.992493,113.033737 
	C130.449203,112.363380 131.230194,111.695892 132.011169,111.028397 
	C132.422791,110.701401 132.834412,110.374405 133.847794,109.968384 
	C135.970032,109.257568 137.490479,108.625793 139.002853,108.416290 
	C139.012909,110.243668 139.031067,111.648788 139.049225,113.053902 
	C138.795914,114.173264 138.542603,115.292625 137.883286,116.817230 
	C137.210861,117.447571 137.067352,117.734222 137.046738,118.082420 
	C137.046738,118.082420 137.020874,118.003700 136.781616,118.091141 
	C136.399170,118.502701 136.255966,118.826820 136.112762,119.150948 
	C134.314056,125.746864 129.268661,128.460083 123.207237,130.016403 
	C117.950310,131.366165 112.784645,133.384598 107.449043,134.021179 
	C102.695580,134.588333 97.726868,133.949905 92.924385,133.309372 
	C89.378242,132.836426 85.997749,131.192429 82.454689,130.612320 
	C70.899437,128.720306 64.659935,122.575310 62.789169,110.018784 
	C63.591179,108.406189 64.346024,107.554543 65.100868,106.702888 
	C65.482040,107.103233 65.863213,107.503578 66.582970,108.378128 
	C69.269272,110.271118 71.616982,111.689919 73.964684,113.108719 
	C73.964684,113.108719 74.285004,113.257095 74.608917,113.543518 
	C75.658195,114.050995 76.383545,114.272041 77.108894,114.493088 
	C77.521706,114.621307 77.934517,114.749519 79.039505,115.076599 
	C84.828659,115.123703 89.925652,114.971931 95.351906,114.989273 
	C100.801094,119.423035 100.811867,119.736084 95.829231,128.054642 
	C99.504753,128.054642 102.900597,128.054642 106.654976,128.054642 
	C101.585541,119.512291 101.596809,119.389465 107.816925,114.917618 
	C109.783707,115.098335 111.392639,115.136162 113.001564,115.173988 
z" data-index="6"></path>
<path fill="#F8BE32" opacity="1.000000" stroke="none" d="
M138.729370,96.618454 
	C137.279785,95.512474 135.855698,94.049149 134.239594,92.319839 
	C134.938309,90.399864 135.934341,88.944389 137.226105,91.692078 
	C137.904755,93.135605 138.255859,94.733116 138.729370,96.618454 
z" data-index="7"></path>
<path fill="#FCF4BF" opacity="1.000000" stroke="none" d="
M139.010941,107.994019 
	C137.490479,108.625793 135.970032,109.257568 134.083191,109.850861 
	C134.710236,108.700806 135.703644,107.589249 137.139679,106.016792 
	C137.797226,105.147255 138.012146,104.738617 138.227066,104.329971 
	C138.820389,105.305984 139.413712,106.281998 139.725372,107.625580 
	C139.443741,107.993134 139.010941,107.994011 139.010941,107.994019 
z" data-index="8"></path>
<path fill="#F1D15B" opacity="1.000000" stroke="none" d="
M65.092422,106.382996 
	C64.346024,107.554543 63.591179,108.406189 62.700928,109.615723 
	C62.541187,107.852737 62.516850,105.731865 62.753105,103.361595 
	C63.703789,104.095833 64.393883,105.079468 65.092422,106.382996 
z" data-index="9"></path>
<path fill="#F8BE32" opacity="1.000000" stroke="none" d="
M138.502441,104.107651 
	C138.232452,102.573921 138.312439,101.067261 138.658737,99.305504 
	C138.900833,100.745178 138.876617,102.439957 138.502441,104.107651 
z" data-index="10"></path>
<path fill="#FEEEC5" opacity="1.000000" stroke="none" d="
M139.002853,108.416283 
	C139.010941,107.994011 139.443741,107.993134 139.660065,107.990585 
	C139.755936,109.482674 139.635452,110.977310 139.282104,112.762924 
	C139.031067,111.648788 139.012909,110.243668 139.002853,108.416283 
z" data-index="11"></path>
<path fill="#F8BE32" opacity="1.000000" stroke="none" d="
M138.225525,104.262070 
	C138.012146,104.738617 137.797226,105.147255 137.281738,105.724510 
	C137.184448,105.368675 137.387695,104.844223 137.862732,104.205872 
	C138.134491,104.091980 138.223969,104.194176 138.225525,104.262070 
z" data-index="12"></path>
<path fill="#FEEEC5" opacity="1.000000" stroke="none" d="
M137.321945,118.046265 
	C137.067352,117.734222 137.210861,117.447571 137.696106,117.111145 
	C137.809006,117.336571 137.703079,117.673340 137.321945,118.046265 
z" data-index="13"></path>
<path fill="#FEEEC5" opacity="1.000000" stroke="none" d="
M136.296066,118.985535 
	C136.255966,118.826820 136.399170,118.502701 136.814850,118.115891 
	C136.957199,118.366348 136.754547,118.621986 136.296066,118.985535 
z" data-index="14"></path>
<path fill="#024FA8" opacity="1.000000" stroke="none" d="
M70.019539,30.402508 
	C74.779633,30.067055 79.602951,27.446730 84.311058,30.812298 
	C85.052307,31.342180 88.176369,30.297249 88.444016,29.435492 
	C89.812843,25.028259 92.989105,25.985464 96.253647,26.204380 
	C96.419106,27.627085 96.577614,28.990017 96.869354,31.131542 
	C97.334961,39.645222 97.770737,47.377693 97.966599,55.116238 
	C98.120163,61.183239 97.330902,62.238213 91.248329,61.888935 
	C84.720909,61.514118 78.257523,60.131287 71.737434,59.473503 
	C68.778435,59.174984 65.298759,57.088024 63.001347,61.003128 
	C62.410542,59.242416 61.247223,57.447449 61.350105,55.728249 
	C61.553795,52.324398 62.132763,48.860222 63.157063,45.610233 
	C64.311150,41.948471 66.083778,38.475735 67.675415,34.960648 
	C68.332603,33.509274 69.218941,32.161659 70.019539,30.402508 
z" data-index="15"></path>
<path fill="#0750A4" opacity="1.000000" stroke="none" d="
M63.367142,61.041695 
	C65.298759,57.088024 68.778435,59.174984 71.737434,59.473503 
	C78.257523,60.131287 84.720909,61.514118 91.248329,61.888935 
	C97.330902,62.238213 98.120163,61.183239 97.966599,55.116238 
	C97.770737,47.377693 97.334961,39.645222 97.006378,31.447830 
	C98.094414,29.037933 99.178673,27.090338 100.631470,25.539616 
	C100.999039,36.629173 100.998062,47.321857 100.998024,58.344055 
	C100.999939,59.112923 101.000916,59.552277 100.755775,60.160797 
	C100.338654,60.889046 100.167648,61.448128 99.996643,62.007210 
	C87.834068,64.619438 75.674141,67.128204 63.367142,61.041695 
z" data-index="16"></path>
<path fill="#0753A2" opacity="1.000000" stroke="none" d="
M101.001892,59.991631 
	C101.000916,59.552277 100.999939,59.112923 101.218079,58.231926 
	C101.711067,57.587013 101.900421,57.323090 102.338577,56.999268 
	C103.116447,56.999985 103.561005,56.999943 104.005554,56.999901 
	C104.335754,58.093109 104.665947,59.186317 104.991692,60.646908 
	C103.924675,61.010994 102.862114,61.007694 101.399612,60.751778 
	C101.000404,60.329983 101.001152,60.160809 101.001892,59.991631 
z" data-index="17"></path>
<path fill="#165FAB" opacity="1.000000" stroke="none" d="
M100.755775,60.160797 
	C101.001152,60.160809 101.000404,60.329983 101.000877,60.753014 
	C100.872803,61.721973 100.743515,62.437080 100.614227,63.152187 
	C100.426224,62.946362 100.238220,62.740532 100.023422,62.270958 
	C100.167648,61.448128 100.338654,60.889046 100.755775,60.160797 
z" data-index="18"></path>
<path fill="#065196" opacity="1.000000" stroke="none" d="
M104.004379,56.543556 
	C103.561005,56.999943 103.116447,56.999985 102.335678,56.530781 
	C102.005135,47.376991 102.010811,38.692448 102.388908,30.005432 
	C103.506035,30.003866 104.250732,30.004768 104.995438,30.005671 
	C104.994934,30.751610 104.994431,31.497549 104.599541,32.709846 
	C104.136925,37.450714 104.068695,41.725224 104.000465,45.999733 
	C104.001381,49.362225 104.002289,52.724720 104.004379,56.543556 
z" data-index="19"></path>
<path fill="#0753A2" opacity="1.000000" stroke="none" d="
M104.295059,45.708965 
	C104.068695,41.725224 104.136925,37.450714 104.597351,33.082809 
	C104.856255,37.132343 104.722954,41.275269 104.295059,45.708965 
z" data-index="20"></path>
<path fill="#0753A2" opacity="1.000000" stroke="none" d="
M105.190636,29.729248 
	C104.250732,30.004768 103.506035,30.003866 102.383118,29.603809 
	C102.005081,28.133869 102.005257,27.063084 102.005440,25.992296 
	C103.392357,25.994257 104.779266,25.996218 106.582176,25.999798 
	C106.460724,27.151888 105.923279,28.302355 105.190636,29.729248 
z" data-index="21"></path>
<path fill="#165FAB" opacity="1.000000" stroke="none" d="
M101.896378,25.773228 
	C102.005257,27.063084 102.005081,28.133869 102.010696,29.606277 
	C102.010811,38.692448 102.005135,47.376991 102.002350,56.530025 
	C101.900421,57.323090 101.711067,57.587013 101.217133,57.902412 
	C100.998062,47.321857 100.999039,36.629173 100.999313,25.467796 
	C101.325134,25.093744 101.588036,25.278763 101.896378,25.773228 
z" data-index="22"></path>
<path fill="#1B130E" opacity="1.000000" stroke="none" d="
M107.459076,114.774712 
	C101.596809,119.389465 101.585541,119.512291 106.654976,128.054642 
	C102.900597,128.054642 99.504753,128.054642 95.829231,128.054642 
	C100.811867,119.736084 100.801094,119.423035 95.298820,114.676414 
	C94.638039,113.180115 94.359612,112.165802 94.081184,111.151489 
	C94.779396,110.830147 95.478462,110.232887 96.175659,110.235062 
	C99.252739,110.244659 102.352936,110.247826 105.392433,110.649406 
	C106.378426,110.779678 107.204987,112.116707 107.910934,113.541458 
	C107.631279,114.379013 107.545174,114.576859 107.459076,114.774712 
z" data-index="23"></path>
<path fill="#1C140A" opacity="1.000000" stroke="none" d="
M113.061707,103.590935 
	C111.318138,99.093063 111.467224,95.162071 113.945480,91.328087 
	C116.158775,87.904022 118.852798,88.068436 120.185310,91.337242 
	C121.534836,94.647781 122.294296,98.707207 121.718269,102.173744 
	C120.879471,107.221573 116.995613,107.776688 113.061707,103.590935 
z" data-index="24"></path>
<path fill="#1F160B" opacity="1.000000" stroke="none" d="
M89.923523,102.667313 
	C88.191528,104.260849 86.248802,106.751266 85.075142,106.430222 
	C83.280479,105.939301 81.405556,103.749763 80.655235,101.850479 
	C79.123970,97.974411 79.532967,93.910896 82.712311,90.881241 
	C83.619034,90.017212 86.160973,89.622223 87.103645,90.262573 
	C90.828972,92.793182 91.165573,96.740463 90.415611,100.862885 
	C90.327141,101.349197 90.178177,101.824509 89.923523,102.667313 
z" data-index="25"></path>
<path fill="#F1D15B" opacity="1.000000" stroke="none" d="
M93.787819,111.315536 
	C94.359612,112.165802 94.638039,113.180115 94.969551,114.507294 
	C89.925652,114.971931 84.828659,115.123703 79.365868,115.073479 
	C82.327637,114.636993 85.787292,113.734024 88.945259,114.357979 
	C92.039505,114.969322 92.759247,113.665733 93.787819,111.315536 
z" data-index="26"></path>
<path fill="#F1D15B" opacity="1.000000" stroke="none" d="
M73.837006,112.789017 
	C71.616982,111.689919 69.269272,110.271118 66.817642,108.525528 
	C69.045593,109.622253 71.377464,111.045776 73.837006,112.789017 
z" data-index="27"></path>
<path fill="#FCF4BF" opacity="1.000000" stroke="none" d="
M126.747849,113.358139 
	C125.235344,114.161736 123.365334,114.879425 121.260468,115.353729 
	C122.813850,114.497650 124.602104,113.884941 126.747849,113.358139 
z" data-index="28"></path>
<path fill="#FCF4BF" opacity="1.000000" stroke="none" d="
M107.816925,114.917618 
	C107.545174,114.576859 107.631279,114.379013 107.933609,113.936913 
	C109.552422,114.070602 110.955002,114.448540 112.679581,115.000229 
	C111.392639,115.136162 109.783707,115.098335 107.816925,114.917618 
z" data-index="29"></path>
<path fill="#FCF4BF" opacity="1.000000" stroke="none" d="
M131.692444,111.037430 
	C131.230194,111.695892 130.449203,112.363380 129.311768,113.002045 
	C129.761459,112.330971 130.567581,111.688721 131.692444,111.037430 
z" data-index="30"></path>
<path fill="#F1D15B" opacity="1.000000" stroke="none" d="
M76.996422,114.201485 
	C76.383545,114.272041 75.658195,114.050995 74.785080,113.554672 
	C75.386200,113.489555 76.135071,113.699715 76.996422,114.201485 
z" data-index="31"></path>
</svg>